# xmcd
#
# Track frame offsets:
#	150
#	16370
#	30175
#	43300
#	62720
#	77725
#	92350
#	109372
#	124072
#	138000
#	152500
#	170272
#
# Disc length: 2524 seconds
#
# Revision: 0
# Processed by: cddbd v1.4PL0 Copyright (c) Steve Scherf et al.
# Submitted via: dBpowerAMP V4.0
#
DISCID=8a09da0c
DTITLE=Wayne Toups - Back to the Bayou
DYEAR=1900
DGENRE=Country
TTITLE0=I saw Johnnie Dance
TTITLE1=Mine, Mine, Mine
TTITLE2=Old Fashioned 2-step
TTITLE3=Take my hand
TTITLE4=Come on in
TTITLE5=Oh! What a night
TTITLE6=4am alone
TTITLE7=Une Autre Biere
TTITLE8=Ma Belle
TTITLE9=Rockin' Saturday night
TTITLE10=Every man needs a woman
TTITLE11=The back door
EXTD=Tonya Flores. This is a cajun cd by Wayne Toups. Back to the Bayou
EXTT0=
EXTT1=
EXTT2=
EXTT3=
EXTT4=
EXTT5=
EXTT6=
EXTT7=
EXTT8=
EXTT9=
EXTT10=
EXTT11=
PLAYORDER=
